<?xml version="1.0" encoding="UTF-8"?><svg id="Layer_2" xmlns="http://www.w3.org/2000/svg" viewBox="0 0 1228 219.83"><defs><style>.cls-1{font-family:Montserrat-Regular, Montserrat;font-size:70.81px;}.cls-1,.cls-2{fill:#fff;}.cls-2{stroke-width:0px;}</style></defs><g id="Layer_1-2"><path class="cls-2" d="m300.49,148.67l4.85,10.48h13.57c2.18,0,3.62-2.26,2.71-4.23l-2.89-6.25h-18.23Z"/><path class="cls-2" d="m278.38,63.35h-3.14c-.54,0-1.03.31-1.26.8l-25.13,54.36c-.8,1.73.46,3.71,2.37,3.71l14.36.02,8.97-19.4c.94-2.02,3.81-2.02,4.74,0l8.97,19.5c.8,1.75-.49,3.75-2.41,3.7-8.07-.2-21.21,1.06-34.18,8.98-11.24,6.86-17.01,15.02-19.36,20.33-.93,2.1.18,3.81,2.48,3.81h13.6c10.32-11.6,24.97-16.42,37.64-16.08h30.11s-36.49-78.92-36.49-78.92c-.23-.49-.72-.8-1.26-.8Z"/><path class="cls-2" d="m63.71,50.8v114.25s6.1.33,9.78-5.45V45.35s-6.1-.36-9.78,5.46Z"/><path class="cls-2" d="m84.37,21.29v115.36s3.04,5.41,9.78,5.4V26.75s-3.02-5.43-9.78-5.46Z"/><path class="cls-2" d="m105.02,66.14v114.15s6.12.33,9.79-5.45V60.68s-5.94-.41-9.79,5.46Z"/><path class="cls-2" d="m125.67,36.63v115.34s2.91,5.43,9.78,5.48V42.09s-2.94-5.38-9.78-5.46Z"/><path class="cls-2" d="m146.33,72.84v115.39s2.93,5.39,9.78,5.46v-115.39s-2.98-5.45-9.78-5.45Z"/><path class="cls-2" d="m187.67,32.23c-10.09-10.1-21.85-18.03-34.94-23.58C139.17,2.91,124.76,0,109.91,0s-29.26,2.91-42.82,8.65c-13.09,5.54-24.85,13.48-34.94,23.58C11.42,52.99,0,80.57,0,109.92s11.42,56.93,32.15,77.68c10.09,10.1,21.85,18.03,34.94,23.58,13.56,5.74,27.97,8.66,42.82,8.66s29.26-2.91,42.82-8.66c13.09-5.54,24.85-13.48,34.94-23.58,20.74-20.76,32.16-48.35,32.16-77.68s-11.42-56.93-32.16-77.69Zm-77.76,179.58c-56.07,0-101.69-45.71-101.69-101.89S53.84,8.02,109.91,8.02s101.69,45.71,101.69,101.9-45.62,101.89-101.69,101.89Z"/><path class="cls-2" d="m325.12,133.8c0-15.14,11.59-26.08,27.16-26.08,8.26,0,15.36,2.97,20.06,8.47l-6.08,5.72c-3.69-3.98-8.26-5.94-13.54-5.94-10.5,0-18.11,7.39-18.11,17.82s7.6,17.82,18.11,17.82c5.29,0,9.85-1.96,13.54-6.01l6.08,5.79c-4.71,5.5-11.81,8.47-20.14,8.47-15.5,0-27.09-10.94-27.09-26.08Z"/><path class="cls-2" d="m378.57,133.8c0-15.14,11.59-26.08,27.16-26.08,8.26,0,15.36,2.97,20.06,8.47l-6.08,5.72c-3.69-3.98-8.26-5.94-13.54-5.94-10.5,0-18.11,7.39-18.11,17.82s7.6,17.82,18.11,17.82c5.29,0,9.85-1.96,13.54-6.01l6.08,5.79c-4.71,5.5-11.81,8.47-20.14,8.47-15.5,0-27.09-10.94-27.09-26.08Z"/><path class="cls-2" d="m432.03,133.8c0-14.99,11.59-26.08,27.31-26.08s27.31,11.01,27.31,26.08-11.59,26.08-27.31,26.08-27.31-11.08-27.31-26.08Zm45.12,0c0-10.36-7.6-17.82-17.82-17.82s-17.82,7.46-17.82,17.82,7.6,17.82,17.82,17.82,17.82-7.46,17.82-17.82Z"/><path class="cls-2" d="m498.51,108.45h9.42v42.74h26.51v7.97h-35.93v-50.7Z"/><path class="cls-2" d="m578.95,147.41h-25.35l-5,11.73h-9.71l22.82-50.7h9.27l22.89,50.7h-9.85l-5.07-11.73Zm-3.11-7.39l-9.56-22.16-9.49,22.16h19.05Z"/><path class="cls-2" d="m600.2,108.45h22.16c16.44,0,27.67,10.14,27.67,25.35s-11.23,25.35-27.67,25.35h-22.16v-50.7Zm21.73,42.74c11.3,0,18.61-6.88,18.61-17.38s-7.32-17.38-18.61-17.38h-12.31v34.77h12.31Z"/><path class="cls-2" d="m699.94,151.25v7.9h-38.03v-50.7h37.01v7.89h-27.6v13.18h24.48v7.75h-24.48v13.98h28.61Z"/><path class="cls-2" d="m708.05,153.79l3.26-7.32c4.06,3.26,10.5,5.58,16.73,5.58,7.9,0,11.23-2.83,11.23-6.59,0-10.94-30.13-3.77-30.13-22.6,0-8.19,6.52-15.14,20.43-15.14,6.08,0,12.46,1.59,16.88,4.49l-2.97,7.32c-4.56-2.68-9.56-3.98-13.98-3.98-7.82,0-11.01,3.04-11.01,6.88,0,10.79,30.06,3.77,30.06,22.38,0,8.11-6.59,15.07-20.5,15.07-7.89,0-15.79-2.46-19.99-6.08Z"/><text class="cls-1" transform="translate(753.02 159.14)"><tspan x="0" y="0"> </tspan></text><rect class="cls-2" x="780.92" y="107.59" width="10.41" height="51.57"/><path class="cls-2" d="m841.65,120.62c3.26,3.15,4.89,7.83,4.89,14.02v24.52h-10.01v-23.24c0-3.74-.88-6.56-2.65-8.45-1.76-1.9-4.27-2.84-7.53-2.84-3.68,0-6.6,1.11-8.73,3.33-2.14,2.22-3.2,5.41-3.2,9.57v21.63h-10.02v-42.79h9.53v5.53c1.66-1.98,3.74-3.47,6.25-4.49,2.51-1.01,5.34-1.52,8.49-1.52,5.39,0,9.72,1.58,12.98,4.73"/><path class="cls-2" d="m883.88,156.84c-1.18.96-2.6,1.68-4.29,2.16-1.68.48-3.46.72-5.33.72-4.7,0-8.33-1.23-10.9-3.69-2.57-2.46-3.85-6.04-3.85-10.74v-20.59h-7.05v-8.01h7.05v-9.11h10.02v9.11h11.46v8.01h-11.46v20.35c0,2.08.51,3.67,1.52,4.77,1.02,1.1,2.48,1.64,4.41,1.64,2.24,0,4.11-.59,5.61-1.76l2.8,7.13Z"/><path class="cls-2" d="m929.63,140.97h-33.57c.59,3.15,2.12,5.65,4.61,7.49,2.48,1.84,5.57,2.76,9.25,2.76,4.7,0,8.57-1.55,11.62-4.65l5.37,6.17c-1.92,2.3-4.35,4.03-7.29,5.21-2.94,1.17-6.25,1.76-9.93,1.76-4.7,0-8.84-.94-12.42-2.81-3.58-1.87-6.34-4.47-8.29-7.81-1.95-3.34-2.92-7.12-2.92-11.34s.95-7.92,2.84-11.26c1.9-3.34,4.53-5.94,7.89-7.81,3.37-1.87,7.16-2.81,11.38-2.81s7.89.92,11.18,2.77c3.28,1.84,5.85,4.43,7.69,7.77,1.84,3.34,2.76,7.2,2.76,11.58,0,.69-.06,1.68-.16,2.96m-29.61-14.22c-2.22,1.9-3.57,4.42-4.05,7.57h24.28c-.43-3.1-1.74-5.61-3.93-7.53-2.19-1.92-4.91-2.89-8.17-2.89s-5.92.95-8.13,2.84"/><path class="cls-2" d="m980.75,116.37v36.3c0,15.06-7.69,22.59-23.08,22.59-4.11,0-8.01-.52-11.7-1.56-3.69-1.04-6.73-2.55-9.13-4.53l4.49-7.53c1.87,1.55,4.23,2.79,7.09,3.73,2.86.93,5.75,1.4,8.69,1.4,4.7,0,8.15-1.07,10.34-3.2,2.19-2.14,3.29-5.39,3.29-9.78v-2.24c-1.71,1.87-3.79,3.29-6.25,4.25-2.46.96-5.16,1.44-8.09,1.44-4.06,0-7.73-.87-11.02-2.6-3.28-1.74-5.88-4.18-7.77-7.33-1.9-3.15-2.84-6.76-2.84-10.82s.95-7.65,2.84-10.78c1.9-3.13,4.49-5.54,7.77-7.25,3.29-1.71,6.96-2.56,11.02-2.56,3.1,0,5.92.51,8.46,1.52,2.54,1.02,4.66,2.56,6.37,4.65v-5.69h9.53Zm-13.5,28.96c2.43-2.27,3.65-5.22,3.65-8.85s-1.21-6.49-3.65-8.73c-2.43-2.24-5.54-3.37-9.33-3.37s-6.98,1.12-9.41,3.37c-2.43,2.24-3.65,5.16-3.65,8.73s1.21,6.58,3.65,8.85c2.43,2.27,5.57,3.41,9.41,3.41s6.9-1.13,9.33-3.41"/><path class="cls-2" d="m1017.52,115.89v9.53c-.85-.16-1.63-.24-2.32-.24-3.9,0-6.94,1.14-9.13,3.41-2.19,2.27-3.29,5.54-3.29,9.81v20.75h-10.02v-42.79h9.54v6.25c2.88-4.49,7.96-6.73,15.22-6.73"/><path class="cls-2" d="m1055.46,120.42c3.34,3.02,5.01,7.57,5.01,13.66v25.08h-9.46v-5.21c-1.23,1.87-2.98,3.3-5.25,4.29-2.27.99-5.01,1.48-8.21,1.48s-6.01-.55-8.41-1.64c-2.4-1.09-4.26-2.62-5.57-4.57-1.31-1.95-1.96-4.15-1.96-6.61,0-3.85,1.43-6.93,4.29-9.25,2.86-2.32,7.36-3.49,13.5-3.49h11.06v-.64c0-2.99-.9-5.29-2.68-6.89-1.79-1.6-4.45-2.4-7.97-2.4-2.4,0-4.77.38-7.09,1.12-2.32.75-4.29,1.79-5.89,3.12l-3.93-7.29c2.24-1.71,4.94-3.02,8.09-3.93,3.15-.91,6.49-1.36,10.02-1.36,6.3,0,11.12,1.51,14.46,4.53m-9.13,30.29c1.95-1.15,3.32-2.79,4.13-4.93v-4.97h-10.34c-5.77,0-8.66,1.9-8.66,5.69,0,1.82.72,3.26,2.17,4.33,1.44,1.07,3.44,1.6,6.01,1.6s4.74-.57,6.69-1.72"/><path class="cls-2" d="m1097.89,156.84c-1.18.96-2.6,1.68-4.29,2.16-1.68.48-3.46.72-5.33.72-4.7,0-8.33-1.23-10.9-3.69-2.57-2.46-3.85-6.04-3.85-10.74v-20.59h-7.05v-8.01h7.05v-9.11h10.02v9.11h11.46v8.01h-11.46v20.35c0,2.08.51,3.67,1.52,4.77,1.02,1.1,2.48,1.64,4.41,1.64,2.24,0,4.11-.59,5.61-1.76l2.8,7.13Z"/><path class="cls-2" d="m1143.64,140.97h-33.57c.59,3.15,2.12,5.65,4.61,7.49,2.48,1.84,5.57,2.76,9.25,2.76,4.7,0,8.57-1.55,11.62-4.65l5.37,6.17c-1.92,2.3-4.35,4.03-7.29,5.21-2.94,1.17-6.25,1.76-9.93,1.76-4.7,0-8.84-.94-12.42-2.81-3.58-1.87-6.34-4.47-8.29-7.81-1.95-3.34-2.92-7.12-2.92-11.34s.95-7.92,2.84-11.26c1.89-3.34,4.53-5.94,7.89-7.81,3.36-1.87,7.16-2.81,11.38-2.81s7.89.92,11.18,2.77c3.28,1.84,5.85,4.43,7.69,7.77,1.84,3.34,2.76,7.2,2.76,11.58,0,.69-.05,1.68-.16,2.96m-29.61-14.22c-2.22,1.9-3.57,4.42-4.05,7.57h24.28c-.43-3.1-1.74-5.61-3.93-7.53-2.19-1.92-4.91-2.89-8.17-2.89s-5.92.95-8.13,2.84"/><path class="cls-2" d="m1194.2,99.71v59.45h-9.61v-5.53c-1.66,2.03-3.7,3.55-6.13,4.57-2.43,1.01-5.12,1.52-8.05,1.52-4.11,0-7.81-.91-11.1-2.72-3.29-1.82-5.86-4.39-7.73-7.73-1.87-3.34-2.8-7.17-2.8-11.5s.93-8.14,2.8-11.46c1.87-3.31,4.45-5.88,7.73-7.69,3.28-1.82,6.98-2.72,11.1-2.72,2.83,0,5.42.48,7.77,1.44,2.35.96,4.35,2.4,6.01,4.33v-21.95h10.01Zm-16.1,49.8c1.92-1.09,3.44-2.66,4.57-4.69,1.12-2.03,1.68-4.38,1.68-7.05s-.56-5.02-1.68-7.05c-1.12-2.03-2.64-3.59-4.57-4.69-1.92-1.09-4.09-1.64-6.49-1.64s-4.57.55-6.49,1.64c-1.92,1.09-3.44,2.66-4.57,4.69-1.12,2.03-1.68,4.38-1.68,7.05s.56,5.02,1.68,7.05c1.12,2.03,2.64,3.59,4.57,4.69,1.92,1.09,4.09,1.64,6.49,1.64s4.57-.55,6.49-1.64"/><path class="cls-2" d="m1202.89,79.38h-3.15v-2.23h9v2.23h-3.2v9.49h-2.66v-9.49Z"/><path class="cls-2" d="m1220.01,84.38c-.05-1.41-.11-3.11-.11-4.82h-.05c-.37,1.49-.85,3.16-1.3,4.54l-1.43,4.57h-2.07l-1.25-4.54c-.38-1.37-.78-3.04-1.06-4.57h-.04c-.07,1.58-.12,3.39-.21,4.85l-.21,4.45h-2.45l.75-11.72h3.53l1.15,3.91c.36,1.36.73,2.82.99,4.19h.05c.33-1.36.73-2.9,1.11-4.21l1.25-3.89h3.46l.64,11.72h-2.59l-.17-4.48Z"/><path class="cls-2" d="m1211.26,99.75c-9.23,0-16.74-7.51-16.74-16.74s7.51-16.74,16.74-16.74,16.74,7.51,16.74,16.74-7.51,16.74-16.74,16.74Zm0-31.64c-8.21,0-14.9,6.68-14.9,14.89s6.68,14.89,14.9,14.89,14.89-6.68,14.89-14.89-6.68-14.89-14.89-14.89Z"/></g></svg>